<?xml version="1.0" encoding="UTF-8" standalone="no"?><svg xmlns="http://www.w3.org/2000/svg" xmlns:xlink="http://www.w3.org/1999/xlink" contentScriptType="application/ecmascript" contentStyleType="text/css" height="210px" preserveAspectRatio="none" style="width:488px;height:210px;" version="1.1" viewBox="0 0 488 210" width="488px" zoomAndPan="magnify"><defs><filter height="300%" id="f1nefqy3v3v24h" width="300%" x="-1" y="-1"><feGaussianBlur result="blurOut" stdDeviation="2.0"/><feColorMatrix in="blurOut" result="blurOut2" type="matrix" values="0 0 0 0 0 0 0 0 0 0 0 0 0 0 0 0 0 0 .4 0"/><feOffset dx="4.0" dy="4.0" in="blurOut2" result="blurOut3"/><feBlend in="SourceGraphic" in2="blurOut3" mode="normal"/></filter></defs><g><ellipse cx="16" cy="40" fill="#000000" filter="url(#f1nefqy3v3v24h)" rx="10" ry="10" style="stroke: none; stroke-width: 1.0;"/><rect fill="#FEFECE" filter="url(#f1nefqy3v3v24h)" height="64.2344" rx="12.5" ry="12.5" style="stroke: #A80036; stroke-width: 1.5;" width="123" x="61.5" y="8"/><line style="stroke: #A80036; stroke-width: 1.5;" x1="61.5" x2="184.5" y1="34.2969" y2="34.2969"/><text fill="#000000" font-family="sans-serif" font-size="14" lengthAdjust="spacingAndGlyphs" textLength="20" x="113" y="25.9951">Init</text><text fill="#000000" font-family="sans-serif" font-size="12" lengthAdjust="spacingAndGlyphs" textLength="87" x="66.5" y="50.4355">activateSonar</text><text fill="#000000" font-family="sans-serif" font-size="12" lengthAdjust="spacingAndGlyphs" textLength="103" x="66.5" y="64.4043">connectToRadar</text><rect fill="#FEFECE" filter="url(#f1nefqy3v3v24h)" height="50" rx="12.5" ry="12.5" style="stroke: #A80036; stroke-width: 1.5;" width="55" x="219.5" y="15"/><line style="stroke: #A80036; stroke-width: 1.5;" x1="219.5" x2="274.5" y1="41.2969" y2="41.2969"/><text fill="#000000" font-family="sans-serif" font-size="14" lengthAdjust="spacingAndGlyphs" textLength="35" x="229.5" y="32.9951">Work</text><rect fill="#FEFECE" filter="url(#f1nefqy3v3v24h)" height="50.2656" rx="12.5" ry="12.5" style="stroke: #A80036; stroke-width: 1.5;" width="164" x="68" y="149"/><line style="stroke: #A80036; stroke-width: 1.5;" x1="68" x2="232" y1="175.2969" y2="175.2969"/><text fill="#000000" font-family="sans-serif" font-size="14" lengthAdjust="spacingAndGlyphs" textLength="97" x="101.5" y="166.9951">SendDistance</text><text fill="#000000" font-family="sans-serif" font-size="12" lengthAdjust="spacingAndGlyphs" textLength="144" x="73" y="191.4355">send distance to radar</text><rect fill="#FEFECE" filter="url(#f1nefqy3v3v24h)" height="50" rx="12.5" ry="12.5" style="stroke: #A80036; stroke-width: 1.5;" width="87" x="300.5" y="149"/><line style="stroke: #A80036; stroke-width: 1.5;" x1="300.5" x2="387.5" y1="175.2969" y2="175.2969"/><text fill="#000000" font-family="sans-serif" font-size="14" lengthAdjust="spacingAndGlyphs" textLength="67" x="310.5" y="166.9951">WaitReply</text><!--MD5=[6c6fd5bc6631f4eb2dc5d7a81c52ede6]
link *start to Init--><path d="M26.0312,40 C36.0306,40 46.0299,40 56.0292,40 " fill="none" id="*start-&gt;Init" style="stroke: #A80036; stroke-width: 1.0;"/><polygon fill="#A80036" points="61.2582,40,52.2582,36,56.2582,40,52.2582,44,61.2582,40" style="stroke: #A80036; stroke-width: 1.0;"/><!--MD5=[63fc5e8570797fe66bd0dedc02848277]
link Init to Work--><path d="M184.516,40 C194.354,40 204.192,40 214.03,40 " fill="none" id="Init-&gt;Work" style="stroke: #A80036; stroke-width: 1.0;"/><polygon fill="#A80036" points="219.175,40,210.175,36,214.175,40,210.175,44,219.175,40" style="stroke: #A80036; stroke-width: 1.0;"/><!--MD5=[9f13edbec5011839b482e87c8ecfd015]
link Work to SendDistance--><path d="M219.05,61.692 C213.537,65.357 207.693,68.966 202,72 C169.952,89.077 146.427,71.976 126,102 C117.386,114.6615 121.765,130.6879 129.011,144.309 " fill="none" id="Work-&gt;SendDistance" style="stroke: #A80036; stroke-width: 1.0;"/><polygon fill="#A80036" points="131.564,148.8278,130.6195,139.0243,129.1045,144.4745,123.6543,142.9596,131.564,148.8278" style="stroke: #A80036; stroke-width: 1.0;"/><text fill="#000000" font-family="sans-serif" font-size="13" lengthAdjust="spacingAndGlyphs" textLength="186" x="127" y="115.0669">received distance from sonar</text><!--MD5=[df6a240471574ef7c95ee2315447f6b2]
link SendDistance to WaitReply--><path d="M232.223,174 C253.242,174 274.262,174 295.282,174 " fill="none" id="SendDistance-&gt;WaitReply" style="stroke: #A80036; stroke-width: 1.0;"/><polygon fill="#A80036" points="300.337,174,291.337,170,295.337,174,291.337,178,300.337,174" style="stroke: #A80036; stroke-width: 1.0;"/><!--MD5=[589e91a934bf087236dd04e87867cb65]
link WaitReply to Work--><path d="M340.156,148.7665 C337.004,134.2706 331.465,116.0072 322,102 C310.834,85.475 293.875,71.148 278.906,60.539 " fill="none" id="WaitReply-&gt;Work" style="stroke: #A80036; stroke-width: 1.0;"/><polygon fill="#A80036" points="274.743,57.647,279.8514,66.0674,278.8491,60.5001,284.4164,59.4977,274.743,57.647" style="stroke: #A80036; stroke-width: 1.0;"/><text fill="#000000" font-family="sans-serif" font-size="13" lengthAdjust="spacingAndGlyphs" textLength="145" x="331" y="115.0669">received ok from radar</text><!--MD5=[163a161465d30c5ac4482ca65aa13d7e]
@startuml
[*] -> Init
Init: activateSonar
Init: connectToRadar
Init -> Work
Work -d-> SendDistance: received distance from sonar
SendDistance: send distance to radar
SendDistance -> WaitReply
WaitReply -> Work: received ok from radar
@enduml

PlantUML version 1.2019.11(Sun Sep 22 12:02:15 CEST 2019)
(GPL source distribution)
Java Runtime: OpenJDK Runtime Environment
JVM: OpenJDK 64-Bit Server VM
Java Version: 1.8.0_222-8u222-b10-1ubuntu1~16.04.1-b10
Operating System: Linux
Default Encoding: UTF-8
Language: en
Country: US
--></g></svg>