<?xml version="1.0" encoding="UTF-8" standalone="no"?><svg xmlns="http://www.w3.org/2000/svg" xmlns:xlink="http://www.w3.org/1999/xlink" contentScriptType="application/ecmascript" contentStyleType="text/css" height="321px" preserveAspectRatio="none" style="width:619px;height:321px;" version="1.1" viewBox="0 0 619 321" width="619px" zoomAndPan="magnify"><defs><filter height="300%" id="f1i2c8oqe45zdv" width="300%" x="-1" y="-1"><feGaussianBlur result="blurOut" stdDeviation="2.0"/><feColorMatrix in="blurOut" result="blurOut2" type="matrix" values="0 0 0 0 0 0 0 0 0 0 0 0 0 0 0 0 0 0 .4 0"/><feOffset dx="4.0" dy="4.0" in="blurOut2" result="blurOut3"/><feBlend in="SourceGraphic" in2="blurOut3" mode="normal"/></filter></defs><g><ellipse cx="182" cy="40" fill="#000000" filter="url(#f1i2c8oqe45zdv)" rx="10" ry="10" style="stroke: none; stroke-width: 1.0;"/><rect fill="#FEFECE" filter="url(#f1i2c8oqe45zdv)" height="64.2344" rx="12.5" ry="12.5" style="stroke: #A80036; stroke-width: 1.5;" width="123" x="227.5" y="8"/><line style="stroke: #A80036; stroke-width: 1.5;" x1="227.5" x2="350.5" y1="34.2969" y2="34.2969"/><text fill="#000000" font-family="sans-serif" font-size="14" lengthAdjust="spacingAndGlyphs" textLength="20" x="279" y="25.9951">Init</text><text fill="#000000" font-family="sans-serif" font-size="12" lengthAdjust="spacingAndGlyphs" textLength="87" x="232.5" y="50.4355">activateSonar</text><text fill="#000000" font-family="sans-serif" font-size="12" lengthAdjust="spacingAndGlyphs" textLength="103" x="232.5" y="64.4043">connectToRadar</text><rect fill="#FEFECE" filter="url(#f1i2c8oqe45zdv)" height="50" rx="12.5" ry="12.5" style="stroke: #A80036; stroke-width: 1.5;" width="55" x="261.5" y="133"/><line style="stroke: #A80036; stroke-width: 1.5;" x1="261.5" x2="316.5" y1="159.2969" y2="159.2969"/><text fill="#000000" font-family="sans-serif" font-size="14" lengthAdjust="spacingAndGlyphs" textLength="35" x="271.5" y="150.9951">Work</text><rect fill="#FEFECE" filter="url(#f1i2c8oqe45zdv)" height="50.2656" rx="12.5" ry="12.5" style="stroke: #A80036; stroke-width: 1.5;" width="164" x="6" y="260"/><line style="stroke: #A80036; stroke-width: 1.5;" x1="6" x2="170" y1="286.2969" y2="286.2969"/><text fill="#000000" font-family="sans-serif" font-size="14" lengthAdjust="spacingAndGlyphs" textLength="97" x="39.5" y="277.9951">SendDistance</text><text fill="#000000" font-family="sans-serif" font-size="12" lengthAdjust="spacingAndGlyphs" textLength="144" x="11" y="302.4355">send distance to radar</text><rect fill="#FEFECE" filter="url(#f1i2c8oqe45zdv)" height="50" rx="12.5" ry="12.5" style="stroke: #A80036; stroke-width: 1.5;" width="87" x="214.5" y="260"/><line style="stroke: #A80036; stroke-width: 1.5;" x1="214.5" x2="301.5" y1="286.2969" y2="286.2969"/><text fill="#000000" font-family="sans-serif" font-size="14" lengthAdjust="spacingAndGlyphs" textLength="67" x="224.5" y="277.9951">WaitReply</text><rect fill="#FEFECE" filter="url(#f1i2c8oqe45zdv)" height="50.2656" rx="12.5" ry="12.5" style="stroke: #A80036; stroke-width: 1.5;" width="144" x="463" y="260"/><line style="stroke: #A80036; stroke-width: 1.5;" x1="463" x2="607" y1="286.2969" y2="286.2969"/><text fill="#000000" font-family="sans-serif" font-size="14" lengthAdjust="spacingAndGlyphs" textLength="76" x="497" y="277.9951">SendTheta</text><text fill="#000000" font-family="sans-serif" font-size="12" lengthAdjust="spacingAndGlyphs" textLength="124" x="468" y="302.4355">send theta to radar</text><rect fill="#FEFECE" filter="url(#f1i2c8oqe45zdv)" height="50" rx="12.5" ry="12.5" style="stroke: #A80036; stroke-width: 1.5;" width="74" x="498" y="133"/><line style="stroke: #A80036; stroke-width: 1.5;" x1="498" x2="572" y1="159.2969" y2="159.2969"/><text fill="#000000" font-family="sans-serif" font-size="14" lengthAdjust="spacingAndGlyphs" textLength="54" x="508" y="150.9951">WaitAck</text><!--MD5=[6c6fd5bc6631f4eb2dc5d7a81c52ede6]
link *start to Init--><path d="M192.031,40 C202.031,40 212.03,40 222.029,40 " fill="none" id="*start-&gt;Init" style="stroke: #A80036; stroke-width: 1.0;"/><polygon fill="#A80036" points="227.258,40,218.258,36,222.258,40,218.258,44,227.258,40" style="stroke: #A80036; stroke-width: 1.0;"/><!--MD5=[63fc5e8570797fe66bd0dedc02848277]
link Init to Work--><path d="M289,72.086 C289,89.358 289,110.723 289,127.701 " fill="none" id="Init-&gt;Work" style="stroke: #A80036; stroke-width: 1.0;"/><polygon fill="#A80036" points="289,132.819,293,123.819,289,127.819,285,123.819,289,132.819" style="stroke: #A80036; stroke-width: 1.0;"/><!--MD5=[9f13edbec5011839b482e87c8ecfd015]
link Work to SendDistance--><path d="M261.165,161.876 C208.759,167.925 98.6662,183.87 76,213 C66.9063,224.6869 68.7972,240.7595 73.4544,254.6571 " fill="none" id="Work-&gt;SendDistance" style="stroke: #A80036; stroke-width: 1.0;"/><polygon fill="#A80036" points="75.2801,259.6667,75.9565,249.8411,73.568,254.969,68.4401,252.5805,75.2801,259.6667" style="stroke: #A80036; stroke-width: 1.0;"/><text fill="#000000" font-family="sans-serif" font-size="13" lengthAdjust="spacingAndGlyphs" textLength="186" x="77" y="226.0669">received distance from sonar</text><!--MD5=[df6a240471574ef7c95ee2315447f6b2]
link SendDistance to WaitReply--><path d="M170.012,285 C183.059,285 196.106,285 209.154,285 " fill="none" id="SendDistance-&gt;WaitReply" style="stroke: #A80036; stroke-width: 1.0;"/><polygon fill="#A80036" points="214.35,285,205.35,281,209.35,285,205.35,289,214.35,285" style="stroke: #A80036; stroke-width: 1.0;"/><!--MD5=[65be8be1446ad1cae6e4ed1cad6a294d]
link WaitReply to SendTheta--><path d="M301.586,285 C343.345,285 407.285,285 457.691,285 " fill="none" id="WaitReply-&gt;SendTheta" style="stroke: #A80036; stroke-width: 1.0;"/><polygon fill="#A80036" points="462.835,285,453.835,281,457.835,285,453.835,289,462.835,285" style="stroke: #A80036; stroke-width: 1.0;"/><text fill="#000000" font-family="sans-serif" font-size="13" lengthAdjust="spacingAndGlyphs" textLength="125" x="319.75" y="278.0669">radar request theta</text><!--MD5=[589e91a934bf087236dd04e87867cb65]
link WaitReply to Work--><path d="M263.959,259.9727 C269.035,239.5026 276.347,210.0209 281.76,188.194 " fill="none" id="WaitReply-&gt;Work" style="stroke: #A80036; stroke-width: 1.0;"/><polygon fill="#A80036" points="283.023,183.101,276.9731,190.8726,281.8187,187.9538,284.7376,192.7995,283.023,183.101" style="stroke: #A80036; stroke-width: 1.0;"/><text fill="#000000" font-family="sans-serif" font-size="13" lengthAdjust="spacingAndGlyphs" textLength="145" x="277" y="226.0669">received ok from radar</text><!--MD5=[55bc6733464825370f43007473f4fe92]
reverse link WaitAck to SendTheta--><path d="M535,188.194 C535,210.0209 535,239.5026 535,259.9727 " fill="none" id="WaitAck&lt;-SendTheta" style="stroke: #A80036; stroke-width: 1.0;"/><polygon fill="#A80036" points="535,183.101,531,192.101,535,188.101,539,192.101,535,183.101" style="stroke: #A80036; stroke-width: 1.0;"/><!--MD5=[627f75632bd81e5d0349d3f4b16d68d7]
reverse link Work to WaitAck--><path d="M321.851,158 C367.499,158 449.884,158 497.76,158 " fill="none" id="Work&lt;-WaitAck" style="stroke: #A80036; stroke-width: 1.0;"/><polygon fill="#A80036" points="316.741,158,325.741,162,321.741,158,325.741,154,316.741,158" style="stroke: #A80036; stroke-width: 1.0;"/><text fill="#000000" font-family="sans-serif" font-size="13" lengthAdjust="spacingAndGlyphs" textLength="145" x="334.75" y="151.0669">received ok from radar</text><!--MD5=[521828086dd71808c3c8a4bdb3172cfd]
@startuml
[*] -> Init
Init: activateSonar
Init: connectToRadar
Init -d-> Work
Work -d-> SendDistance: received distance from sonar
SendDistance: send distance to radar
SendDistance -> WaitReply
WaitReply -> SendTheta: radar request theta
WaitReply -> Work: received ok from radar
SendTheta: send theta to radar
SendTheta -u-> WaitAck
WaitAck -l-> Work: received ok from radar
@enduml

PlantUML version 1.2019.11(Sun Sep 22 12:02:15 CEST 2019)
(GPL source distribution)
Java Runtime: OpenJDK Runtime Environment
JVM: OpenJDK 64-Bit Server VM
Java Version: 1.8.0_222-8u222-b10-1ubuntu1~16.04.1-b10
Operating System: Linux
Default Encoding: UTF-8
Language: en
Country: US
--></g></svg>