<?xml version="1.0" encoding="UTF-8" standalone="no"?><svg xmlns="http://www.w3.org/2000/svg" xmlns:xlink="http://www.w3.org/1999/xlink" contentScriptType="application/ecmascript" contentStyleType="text/css" height="337px" preserveAspectRatio="none" style="width:605px;height:337px;" version="1.1" viewBox="0 0 605 337" width="605px" zoomAndPan="magnify"><defs><filter height="300%" id="fqjlrl48t558f" width="300%" x="-1" y="-1"><feGaussianBlur result="blurOut" stdDeviation="2.0"/><feColorMatrix in="blurOut" result="blurOut2" type="matrix" values="0 0 0 0 0 0 0 0 0 0 0 0 0 0 0 0 0 0 .4 0"/><feOffset dx="4.0" dy="4.0" in="blurOut2" result="blurOut3"/><feBlend in="SourceGraphic" in2="blurOut3" mode="normal"/></filter></defs><g><ellipse cx="44" cy="40" fill="#000000" filter="url(#fqjlrl48t558f)" rx="10" ry="10" style="stroke: none; stroke-width: 1.0;"/><rect fill="#FEFECE" filter="url(#fqjlrl48t558f)" height="64.2344" rx="12.5" ry="12.5" style="stroke: #A80036; stroke-width: 1.5;" width="130" x="89" y="8"/><line style="stroke: #A80036; stroke-width: 1.5;" x1="89" x2="219" y1="34.2969" y2="34.2969"/><text fill="#000000" font-family="sans-serif" font-size="14" lengthAdjust="spacingAndGlyphs" textLength="20" x="144" y="25.9951">Init</text><text fill="#000000" font-family="sans-serif" font-size="12" lengthAdjust="spacingAndGlyphs" textLength="84" x="94" y="50.4355">create server</text><text fill="#000000" font-family="sans-serif" font-size="12" lengthAdjust="spacingAndGlyphs" textLength="110" x="94" y="64.4043">create radar pojo</text><rect fill="#FEFECE" filter="url(#fqjlrl48t558f)" height="50" rx="12.5" ry="12.5" style="stroke: #A80036; stroke-width: 1.5;" width="55" x="126.5" y="149"/><line style="stroke: #A80036; stroke-width: 1.5;" x1="126.5" x2="181.5" y1="175.2969" y2="175.2969"/><text fill="#000000" font-family="sans-serif" font-size="14" lengthAdjust="spacingAndGlyphs" textLength="35" x="136.5" y="166.9951">Work</text><rect fill="#FEFECE" filter="url(#fqjlrl48t558f)" height="50.2656" rx="12.5" ry="12.5" style="stroke: #A80036; stroke-width: 1.5;" width="162" x="6" y="276"/><line style="stroke: #A80036; stroke-width: 1.5;" x1="6" x2="168" y1="302.2969" y2="302.2969"/><text fill="#000000" font-family="sans-serif" font-size="14" lengthAdjust="spacingAndGlyphs" textLength="99" x="37.5" y="293.9951">RequestTheta</text><text fill="#000000" font-family="sans-serif" font-size="12" lengthAdjust="spacingAndGlyphs" textLength="142" x="11" y="318.4355">request theta to client</text><rect fill="#FEFECE" filter="url(#fqjlrl48t558f)" height="50.2656" rx="12.5" ry="12.5" style="stroke: #A80036; stroke-width: 1.5;" width="223" x="370.5" y="276"/><line style="stroke: #A80036; stroke-width: 1.5;" x1="370.5" x2="593.5" y1="302.2969" y2="302.2969"/><text fill="#000000" font-family="sans-serif" font-size="14" lengthAdjust="spacingAndGlyphs" textLength="80" x="442" y="293.9951">UpdatePojo</text><text fill="#000000" font-family="sans-serif" font-size="12" lengthAdjust="spacingAndGlyphs" textLength="203" x="375.5" y="318.4355">send distance and theta to pojo</text><rect fill="#FEFECE" filter="url(#fqjlrl48t558f)" height="50.2656" rx="12.5" ry="12.5" style="stroke: #A80036; stroke-width: 1.5;" width="125" x="259.5" y="149"/><line style="stroke: #A80036; stroke-width: 1.5;" x1="259.5" x2="384.5" y1="175.2969" y2="175.2969"/><text fill="#000000" font-family="sans-serif" font-size="14" lengthAdjust="spacingAndGlyphs" textLength="38" x="303" y="166.9951">Reply</text><text fill="#000000" font-family="sans-serif" font-size="12" lengthAdjust="spacingAndGlyphs" textLength="105" x="264.5" y="191.4355">send ok to client</text><!--MD5=[6c6fd5bc6631f4eb2dc5d7a81c52ede6]
link *start to Init--><path d="M54.3125,40 C64.15,40 73.9876,40 83.8251,40 " fill="none" id="*start-&gt;Init" style="stroke: #A80036; stroke-width: 1.0;"/><polygon fill="#A80036" points="88.9695,40,79.9695,36,83.9695,40,79.9695,44,88.9695,40" style="stroke: #A80036; stroke-width: 1.0;"/><!--MD5=[63fc5e8570797fe66bd0dedc02848277]
link Init to Work--><path d="M154,72.282 C154,93.929 154,122.542 154,143.737 " fill="none" id="Init-&gt;Work" style="stroke: #A80036; stroke-width: 1.0;"/><polygon fill="#A80036" points="154,148.957,158,139.957,154,143.957,150,139.957,154,148.957" style="stroke: #A80036; stroke-width: 1.0;"/><text fill="#000000" font-family="sans-serif" font-size="13" lengthAdjust="spacingAndGlyphs" textLength="199" x="155" y="115.0669">sonar established a connection</text><!--MD5=[429d89a22710c79f2d386d688b53778c]
link Work to RequestTheta--><path d="M141.082,199.101 C130.005,219.766 114.028,249.5747 102.3109,271.4348 " fill="none" id="Work-&gt;RequestTheta" style="stroke: #A80036; stroke-width: 1.0;"/><polygon fill="#A80036" points="99.8786,275.9727,107.6558,269.93,102.2407,271.5658,100.6048,266.1507,99.8786,275.9727" style="stroke: #A80036; stroke-width: 1.0;"/><text fill="#000000" font-family="sans-serif" font-size="13" lengthAdjust="spacingAndGlyphs" textLength="186" x="126" y="242.0669">received distance from sonar</text><!--MD5=[4b87cece5b8d84203a0699005f9a3fe8]
link RequestTheta to UpdatePojo--><path d="M168.365,301 C225.149,301 301.798,301 365.107,301 " fill="none" id="RequestTheta-&gt;UpdatePojo" style="stroke: #A80036; stroke-width: 1.0;"/><polygon fill="#A80036" points="370.414,301,361.414,297,365.414,301,361.414,305,370.414,301" style="stroke: #A80036; stroke-width: 1.0;"/><text fill="#000000" font-family="sans-serif" font-size="13" lengthAdjust="spacingAndGlyphs" textLength="166" x="186.25" y="294.0669">received theta from sonar</text><!--MD5=[75588d44059813afcd800e42eb987b98]
reverse link Reply to UpdatePojo--><path d="M356.92,202.281 C385.067,224.271 424.269,254.898 451.245,275.9727 " fill="none" id="Reply&lt;-UpdatePojo" style="stroke: #A80036; stroke-width: 1.0;"/><polygon fill="#A80036" points="352.85,199.101,357.4806,207.7934,356.7904,202.1788,362.405,201.4887,352.85,199.101" style="stroke: #A80036; stroke-width: 1.0;"/><!--MD5=[113e488e594dae1c88965e4d4c7017d5]
reverse link Work to Reply--><path d="M186.735,174 C210.977,174 235.219,174 259.461,174 " fill="none" id="Work&lt;-Reply" style="stroke: #A80036; stroke-width: 1.0;"/><polygon fill="#A80036" points="181.562,174,190.562,178,186.562,174,190.562,170,181.562,174" style="stroke: #A80036; stroke-width: 1.0;"/><!--MD5=[7fcd3b1e7fce0a2ed464fbae13404e5d]
@startuml
[*] -> Init
Init: create server
Init: create radar pojo
Init -d-> Work: sonar established a connection
Work -d-> RequestTheta: received distance from sonar
RequestTheta: request theta to client
RequestTheta -> UpdatePojo: received theta from sonar
UpdatePojo: send distance and theta to pojo
UpdatePojo -u-> Reply
Reply: send ok to client
Reply -l-> Work
@enduml

PlantUML version 1.2019.11(Sun Sep 22 12:02:15 CEST 2019)
(GPL source distribution)
Java Runtime: OpenJDK Runtime Environment
JVM: OpenJDK 64-Bit Server VM
Java Version: 1.8.0_222-8u222-b10-1ubuntu1~16.04.1-b10
Operating System: Linux
Default Encoding: UTF-8
Language: en
Country: US
--></g></svg>