<?xml version="1.0" encoding="UTF-8" standalone="no"?><svg xmlns="http://www.w3.org/2000/svg" xmlns:xlink="http://www.w3.org/1999/xlink" contentScriptType="application/ecmascript" contentStyleType="text/css" height="337px" preserveAspectRatio="none" style="width:382px;height:337px;" version="1.1" viewBox="0 0 382 337" width="382px" zoomAndPan="magnify"><defs><filter height="300%" id="f112t8xouvc28s" width="300%" x="-1" y="-1"><feGaussianBlur result="blurOut" stdDeviation="2.0"/><feColorMatrix in="blurOut" result="blurOut2" type="matrix" values="0 0 0 0 0 0 0 0 0 0 0 0 0 0 0 0 0 0 .4 0"/><feOffset dx="4.0" dy="4.0" in="blurOut2" result="blurOut3"/><feBlend in="SourceGraphic" in2="blurOut3" mode="normal"/></filter></defs><g><ellipse cx="62.5" cy="40" fill="#000000" filter="url(#f112t8xouvc28s)" rx="10" ry="10" style="stroke: none; stroke-width: 1.0;"/><rect fill="#FEFECE" filter="url(#f112t8xouvc28s)" height="64.2344" rx="12.5" ry="12.5" style="stroke: #A80036; stroke-width: 1.5;" width="130" x="107.5" y="8"/><line style="stroke: #A80036; stroke-width: 1.5;" x1="107.5" x2="237.5" y1="34.2969" y2="34.2969"/><text fill="#000000" font-family="sans-serif" font-size="14" lengthAdjust="spacingAndGlyphs" textLength="20" x="162.5" y="25.9951">Init</text><text fill="#000000" font-family="sans-serif" font-size="12" lengthAdjust="spacingAndGlyphs" textLength="84" x="112.5" y="50.4355">create server</text><text fill="#000000" font-family="sans-serif" font-size="12" lengthAdjust="spacingAndGlyphs" textLength="110" x="112.5" y="64.4043">create radar pojo</text><rect fill="#FEFECE" filter="url(#f112t8xouvc28s)" height="50" rx="12.5" ry="12.5" style="stroke: #A80036; stroke-width: 1.5;" width="55" x="145" y="149"/><line style="stroke: #A80036; stroke-width: 1.5;" x1="145" x2="200" y1="175.2969" y2="175.2969"/><text fill="#000000" font-family="sans-serif" font-size="14" lengthAdjust="spacingAndGlyphs" textLength="35" x="155" y="166.9951">Work</text><rect fill="#FEFECE" filter="url(#f112t8xouvc28s)" height="50.2656" rx="12.5" ry="12.5" style="stroke: #A80036; stroke-width: 1.5;" width="157" x="6" y="276"/><line style="stroke: #A80036; stroke-width: 1.5;" x1="6" x2="163" y1="302.2969" y2="302.2969"/><text fill="#000000" font-family="sans-serif" font-size="14" lengthAdjust="spacingAndGlyphs" textLength="80" x="44.5" y="293.9951">UpdatePojo</text><text fill="#000000" font-family="sans-serif" font-size="12" lengthAdjust="spacingAndGlyphs" textLength="137" x="11" y="318.4355">send distance to pojo</text><rect fill="#FEFECE" filter="url(#f112t8xouvc28s)" height="50.2656" rx="12.5" ry="12.5" style="stroke: #A80036; stroke-width: 1.5;" width="125" x="206" y="276"/><line style="stroke: #A80036; stroke-width: 1.5;" x1="206" x2="331" y1="302.2969" y2="302.2969"/><text fill="#000000" font-family="sans-serif" font-size="14" lengthAdjust="spacingAndGlyphs" textLength="38" x="249.5" y="293.9951">Reply</text><text fill="#000000" font-family="sans-serif" font-size="12" lengthAdjust="spacingAndGlyphs" textLength="105" x="211" y="318.4355">send ok to client</text><!--MD5=[6c6fd5bc6631f4eb2dc5d7a81c52ede6]
link *start to Init--><path d="M72.8125,40 C82.65,40 92.4876,40 102.3251,40 " fill="none" id="*start-&gt;Init" style="stroke: #A80036; stroke-width: 1.0;"/><polygon fill="#A80036" points="107.469,40,98.469,36,102.469,40,98.469,44,107.469,40" style="stroke: #A80036; stroke-width: 1.0;"/><!--MD5=[63fc5e8570797fe66bd0dedc02848277]
link Init to Work--><path d="M172.5,72.282 C172.5,93.929 172.5,122.542 172.5,143.737 " fill="none" id="Init-&gt;Work" style="stroke: #A80036; stroke-width: 1.0;"/><polygon fill="#A80036" points="172.5,148.957,176.5,139.957,172.5,143.957,168.5,139.957,172.5,148.957" style="stroke: #A80036; stroke-width: 1.0;"/><text fill="#000000" font-family="sans-serif" font-size="13" lengthAdjust="spacingAndGlyphs" textLength="197" x="173.5" y="115.0669">client established a connection</text><!--MD5=[0b4bf16c71518198d0fa45aa43fc10df]
link Work to UpdatePojo--><path d="M144.553,180.499 C118.988,187.172 82.623,201.178 65.5,229 C57.6968,241.6786 60.9527,257.5479 66.8081,271.0662 " fill="none" id="Work-&gt;UpdatePojo" style="stroke: #A80036; stroke-width: 1.0;"/><polygon fill="#A80036" points="69.0672,275.9299,68.9034,266.0824,66.9608,271.3952,61.648,269.4526,69.0672,275.9299" style="stroke: #A80036; stroke-width: 1.0;"/><text fill="#000000" font-family="sans-serif" font-size="13" lengthAdjust="spacingAndGlyphs" textLength="184" x="66.5" y="242.0669">received distance from client</text><!--MD5=[8670092376c6169c6474f099a9b7bab0]
link UpdatePojo to Reply--><path d="M163.203,301 C175.791,301 188.379,301 200.967,301 " fill="none" id="UpdatePojo-&gt;Reply" style="stroke: #A80036; stroke-width: 1.0;"/><polygon fill="#A80036" points="205.98,301,196.98,297,200.98,301,196.98,305,205.98,301" style="stroke: #A80036; stroke-width: 1.0;"/><!--MD5=[849bfcc3e1b03bc1f083150f9799f2c9]
link Reply to Work--><path d="M268.758,275.8538 C267.839,261.2139 264.669,242.7674 255.5,229 C243.393,210.821 222.859,197.385 205.245,188.463 " fill="none" id="Reply-&gt;Work" style="stroke: #A80036; stroke-width: 1.0;"/><polygon fill="#A80036" points="200.363,186.065,206.6773,193.6234,204.8507,188.2696,210.2046,186.4431,200.363,186.065" style="stroke: #A80036; stroke-width: 1.0;"/><!--MD5=[cc26b21bda535f2e15e4d9d5662a776c]
@startuml
[*] -> Init
Init: create server
Init: create radar pojo
Init -d-> Work: client established a connection
Work -d-> UpdatePojo: received distance from client
UpdatePojo: send distance to pojo
UpdatePojo -> Reply
Reply: send ok to client
Reply -> Work
@enduml

PlantUML version 1.2019.11(Sun Sep 22 12:02:15 CEST 2019)
(GPL source distribution)
Java Runtime: OpenJDK Runtime Environment
JVM: OpenJDK 64-Bit Server VM
Java Version: 1.8.0_222-8u222-b10-1ubuntu1~16.04.1-b10
Operating System: Linux
Default Encoding: UTF-8
Language: en
Country: US
--></g></svg>